<svg xmlns="http://www.w3.org/2000/svg" version="1.1" xmlns:xlink="http://www.w3.org/1999/xlink" xmlns:svgjs="http://svgjs.dev/svgjs" width="2000" height="1247" viewBox="0 0 2000 1247"><g transform="matrix(1,0,0,1,-1.2121212121212466,245.62250141086975)"><svg viewBox="0 0 396 247" data-background-color="#d8d8d8" preserveAspectRatio="xMidYMid meet" height="1247" width="2000" xmlns="http://www.w3.org/2000/svg" xmlns:xlink="http://www.w3.org/1999/xlink"><g id="tight-bounds" transform="matrix(1,0,0,1,0.2400000000000091,-0.09999999999999432)"><svg viewBox="0 0 395.52 247.2" height="247.2" width="395.52"><g><svg></svg></g><g><svg viewBox="0 0 395.52 247.2" height="247.2" width="395.52"><g transform="matrix(1,0,0,1,75.54432000000001,70.50853033907727)"><svg viewBox="0 0 244.43135999999996 106.18293932184545" height="106.18293932184545" width="244.43135999999996"><g><svg viewBox="0 0 244.43135999999996 106.18293932184545" height="106.18293932184545" width="244.43135999999996"><g><svg viewBox="0 0 244.43135999999996 106.18293932184545" height="106.18293932184545" width="244.43135999999996"><g><svg viewBox="0 0 244.43135999999996 106.18293932184545" height="106.18293932184545" width="244.43135999999996"><g id="textblocktransform"><svg viewBox="0 0 244.43135999999996 106.18293932184545" height="106.18293932184545" width="244.43135999999996" id="textblock"><g><svg viewBox="0 0 244.43135999999996 106.18293932184545" height="106.18293932184545" width="244.43135999999996"><g transform="matrix(1,0,0,1,0,0)"><svg width="244.43135999999996" viewBox="5.37 -38.16 87.83999999999999 38.16" height="106.18293932184545" data-palette-color="#00b4d8"><path d="M5.37 0L5.37-38.16 13.11-38.16 36.89-25.71 36.89-38.16 44.63-38.16 44.63 0 36.89 0 36.89-17.5 13.11-29.88 13.11 0 5.37 0ZM55.42 0L55.42-38.16 63.16-38.16 63.16-18.41 83.3-38.16 93.21-38.16 74.41-19.95 93.21 0 82.91 0 68.85-14.55 63.16-9.06 63.16 0 55.42 0Z" opacity="1" transform="matrix(1,0,0,1,0,0)" fill="#000000" class="wordmark-text-0" data-fill-palette-color="primary" id="text-0"></path></svg></g></svg></g></svg></g></svg></g><g></g></svg></g></svg></g></svg></g><g><path d="M103.803 45.441A122.216 122.216 0 0 1 291.717 45.441L282.141 45.441A112.64 112.64 0 0 0 113.379 45.441L103.803 45.441M103.803 201.759A122.216 122.216 0 0 0 291.717 201.759L282.141 201.759A112.64 112.64 0 0 1 113.379 201.759L103.803 201.759" fill="#000000" stroke="transparent" data-fill-palette-color="tertiary"></path></g></svg></g><defs></defs></svg><rect width="395.52" height="247.2" fill="none" stroke="none" visibility="hidden"></rect></g></svg></g></svg>