<?xml version="1.0" standalone="no"?>
<svg xmlns:xlink="http://www.w3.org/1999/xlink" id="wave" style="transform:rotate(180deg); transition: 0.3s" viewBox="0 0 1440 490" version="1.1" xmlns="http://www.w3.org/2000/svg"><defs><linearGradient id="sw-gradient-0" x1="0" x2="0" y1="1" y2="0"><stop stop-color="rgba(120, 137, 152, 1)" offset="0%"/><stop stop-color="rgba(96, 111, 125, 1)" offset="100%"/></linearGradient></defs><path style="transform:translate(0, 0px); opacity:1" fill="url(#sw-gradient-0)" d="M0,392L48,326.7C96,261,192,131,288,114.3C384,98,480,196,576,228.7C672,261,768,229,864,245C960,261,1056,327,1152,318.5C1248,310,1344,229,1440,212.3C1536,196,1632,245,1728,228.7C1824,212,1920,131,2016,155.2C2112,180,2208,310,2304,351.2C2400,392,2496,343,2592,310.3C2688,278,2784,261,2880,236.8C2976,212,3072,180,3168,163.3C3264,147,3360,147,3456,187.8C3552,229,3648,310,3744,351.2C3840,392,3936,392,4032,359.3C4128,327,4224,261,4320,261.3C4416,261,4512,327,4608,367.5C4704,408,4800,425,4896,400.2C4992,376,5088,310,5184,302.2C5280,294,5376,343,5472,351.2C5568,359,5664,327,5760,326.7C5856,327,5952,359,6048,351.2C6144,343,6240,294,6336,245C6432,196,6528,147,6624,179.7C6720,212,6816,327,6864,383.8L6912,441L6912,490L6864,490C6816,490,6720,490,6624,490C6528,490,6432,490,6336,490C6240,490,6144,490,6048,490C5952,490,5856,490,5760,490C5664,490,5568,490,5472,490C5376,490,5280,490,5184,490C5088,490,4992,490,4896,490C4800,490,4704,490,4608,490C4512,490,4416,490,4320,490C4224,490,4128,490,4032,490C3936,490,3840,490,3744,490C3648,490,3552,490,3456,490C3360,490,3264,490,3168,490C3072,490,2976,490,2880,490C2784,490,2688,490,2592,490C2496,490,2400,490,2304,490C2208,490,2112,490,2016,490C1920,490,1824,490,1728,490C1632,490,1536,490,1440,490C1344,490,1248,490,1152,490C1056,490,960,490,864,490C768,490,672,490,576,490C480,490,384,490,288,490C192,490,96,490,48,490L0,490Z"/><defs><linearGradient id="sw-gradient-1" x1="0" x2="0" y1="1" y2="0"><stop stop-color="rgba(135, 120, 152, 1)" offset="0%"/><stop stop-color="rgba(110, 96, 125, 1)" offset="100%"/></linearGradient></defs><path style="transform:translate(0, 50px); opacity:0.9" fill="url(#sw-gradient-1)" d="M0,0L48,16.3C96,33,192,65,288,130.7C384,196,480,294,576,277.7C672,261,768,131,864,81.7C960,33,1056,65,1152,114.3C1248,163,1344,229,1440,277.7C1536,327,1632,359,1728,375.7C1824,392,1920,392,2016,326.7C2112,261,2208,131,2304,73.5C2400,16,2496,33,2592,89.8C2688,147,2784,245,2880,302.2C2976,359,3072,376,3168,383.8C3264,392,3360,392,3456,326.7C3552,261,3648,131,3744,81.7C3840,33,3936,65,4032,98C4128,131,4224,163,4320,196C4416,229,4512,261,4608,253.2C4704,245,4800,196,4896,155.2C4992,114,5088,82,5184,106.2C5280,131,5376,212,5472,245C5568,278,5664,261,5760,245C5856,229,5952,212,6048,228.7C6144,245,6240,294,6336,310.3C6432,327,6528,310,6624,253.2C6720,196,6816,98,6864,49L6912,0L6912,490L6864,490C6816,490,6720,490,6624,490C6528,490,6432,490,6336,490C6240,490,6144,490,6048,490C5952,490,5856,490,5760,490C5664,490,5568,490,5472,490C5376,490,5280,490,5184,490C5088,490,4992,490,4896,490C4800,490,4704,490,4608,490C4512,490,4416,490,4320,490C4224,490,4128,490,4032,490C3936,490,3840,490,3744,490C3648,490,3552,490,3456,490C3360,490,3264,490,3168,490C3072,490,2976,490,2880,490C2784,490,2688,490,2592,490C2496,490,2400,490,2304,490C2208,490,2112,490,2016,490C1920,490,1824,490,1728,490C1632,490,1536,490,1440,490C1344,490,1248,490,1152,490C1056,490,960,490,864,490C768,490,672,490,576,490C480,490,384,490,288,490C192,490,96,490,48,490L0,490Z"/><defs><linearGradient id="sw-gradient-2" x1="0" x2="0" y1="1" y2="0"><stop stop-color="rgba(137, 152, 120, 1)" offset="0%"/><stop stop-color="rgba(111, 125, 96, 1)" offset="100%"/></linearGradient></defs><path style="transform:translate(0, 100px); opacity:0.8" fill="url(#sw-gradient-2)" d="M0,245L48,245C96,245,192,245,288,220.5C384,196,480,147,576,147C672,147,768,196,864,196C960,196,1056,147,1152,155.2C1248,163,1344,229,1440,261.3C1536,294,1632,294,1728,269.5C1824,245,1920,196,2016,163.3C2112,131,2208,114,2304,147C2400,180,2496,261,2592,302.2C2688,343,2784,343,2880,294C2976,245,3072,147,3168,147C3264,147,3360,245,3456,269.5C3552,294,3648,245,3744,261.3C3840,278,3936,359,4032,359.3C4128,359,4224,278,4320,261.3C4416,245,4512,294,4608,261.3C4704,229,4800,114,4896,130.7C4992,147,5088,294,5184,343C5280,392,5376,343,5472,294C5568,245,5664,196,5760,179.7C5856,163,5952,180,6048,171.5C6144,163,6240,131,6336,122.5C6432,114,6528,131,6624,155.2C6720,180,6816,212,6864,228.7L6912,245L6912,490L6864,490C6816,490,6720,490,6624,490C6528,490,6432,490,6336,490C6240,490,6144,490,6048,490C5952,490,5856,490,5760,490C5664,490,5568,490,5472,490C5376,490,5280,490,5184,490C5088,490,4992,490,4896,490C4800,490,4704,490,4608,490C4512,490,4416,490,4320,490C4224,490,4128,490,4032,490C3936,490,3840,490,3744,490C3648,490,3552,490,3456,490C3360,490,3264,490,3168,490C3072,490,2976,490,2880,490C2784,490,2688,490,2592,490C2496,490,2400,490,2304,490C2208,490,2112,490,2016,490C1920,490,1824,490,1728,490C1632,490,1536,490,1440,490C1344,490,1248,490,1152,490C1056,490,960,490,864,490C768,490,672,490,576,490C480,490,384,490,288,490C192,490,96,490,48,490L0,490Z"/></svg>